<?xml version="1.0" standalone="no"?>
<!DOCTYPE svg PUBLIC "-//W3C//DTD SVG 20010904//EN"
 "http://www.w3.org/TR/2001/REC-SVG-20010904/DTD/svg10.dtd">
<svg version="1.0" xmlns="http://www.w3.org/2000/svg"
 width="512.000000pt" height="512.000000pt" viewBox="0 0 512.000000 512.000000"
 preserveAspectRatio="xMidYMid meet">
<metadata>
Created by potrace 1.14, written by Peter Selinger 2001-2017
</metadata>
<g transform="translate(0.000000,512.000000) scale(0.100000,-0.100000)"
fill="#000000" stroke="none">
<path d="M3730 4605 c-107 -30 -191 -101 -247 -207 -26 -48 -28 -62 -28 -158
0 -118 13 -157 78 -242 l37 -48 -186 -692 c-102 -381 -192 -718 -200 -748 -8
-30 -35 -130 -60 -221 -24 -91 -44 -179 -44 -195 0 -16 10 -41 23 -57 20 -25
57 -37 375 -122 195 -52 363 -95 373 -95 34 0 76 28 87 57 63 162 64 230 4
265 -15 9 -124 42 -242 73 -118 31 -216 58 -217 59 -2 1 13 60 33 132 19 71
52 197 74 279 22 83 102 382 178 665 l138 515 35 10 c89 26 180 104 224 192
97 194 20 415 -179 513 -77 38 -174 48 -256 25z m179 -181 c116 -46 158 -204
81 -310 -25 -35 -89 -73 -134 -79 -64 -10 -124 10 -172 59 -159 158 15 414
225 330z"/>
<path d="M770 4163 c-195 -68 -301 -274 -242 -469 82 -264 394 -358 612 -183
l40 33 283 -76 c155 -42 572 -153 927 -248 l646 -173 36 17 c28 13 41 28 52
59 27 71 186 678 186 708 0 49 -40 83 -128 107 -180 50 -188 43 -266 -253 -33
-121 -60 -221 -61 -223 -5 -5 -1579 418 -1586 426 -3 4 -14 29 -23 55 -36 97
-119 178 -221 216 -68 26 -188 28 -255 4z m230 -192 c171 -103 93 -371 -108
-371 -140 0 -238 143 -188 275 20 50 82 112 123 121 16 3 33 7 38 9 24 9 94
-9 135 -34z"/>
<path d="M2065 4146 c-16 -8 -35 -23 -42 -34 -17 -29 -63 -202 -63 -238 0 -44
37 -80 101 -98 283 -80 622 -166 652 -166 60 0 84 30 118 150 16 58 29 113 29
122 0 31 -23 69 -51 83 -24 13 -689 196 -707 195 -4 -1 -20 -7 -37 -14z"/>
<path d="M1212 3256 c-21 -19 -34 -45 -50 -104 -29 -105 -28 -146 2 -176 25
-26 55 -36 286 -97 85 -22 163 -43 173 -46 13 -3 18 -12 14 -26 -2 -12 -91
-344 -197 -737 -105 -393 -198 -739 -206 -769 -17 -65 -21 -71 -41 -71 -30 0
-134 -64 -174 -107 -22 -25 -53 -70 -67 -101 -24 -50 -27 -70 -27 -157 0 -93
2 -105 33 -167 114 -232 419 -285 601 -106 56 56 87 109 107 188 28 111 -2
238 -76 322 l-39 45 34 124 c39 144 325 1208 362 1349 13 52 42 159 63 237 21
79 36 153 33 165 -7 26 -30 56 -54 69 -29 15 -689 189 -719 189 -16 0 -41 -11
-58 -24z m175 -2210 c71 -33 106 -87 111 -170 3 -50 -1 -69 -20 -106 -68 -126
-235 -147 -332 -40 -74 82 -73 194 2 274 63 66 152 82 239 42z"/>
<path d="M3855 3159 c-12 -6 -26 -19 -33 -29 -16 -27 -192 -684 -192 -720 0
-53 35 -79 149 -111 58 -16 117 -29 131 -29 34 0 74 30 88 67 21 54 182 668
182 695 0 51 -44 84 -151 112 -103 28 -141 31 -174 15z"/>
<path d="M1157 2809 c-31 -23 -30 -21 -139 -431 -81 -307 -82 -308 -65 -344
11 -22 29 -40 50 -48 64 -27 212 -59 238 -53 61 15 64 23 163 393 52 193 92
362 89 375 -10 52 -35 70 -143 100 -123 34 -158 36 -193 8z"/>
<path d="M2040 2033 c-27 -26 -38 -60 -125 -385 -64 -238 -93 -366 -89 -383
10 -41 55 -70 148 -94 99 -26 137 -22 168 19 10 14 45 123 77 243 32 120 61
220 62 221 2 2 153 -37 334 -86 571 -154 914 -246 1085 -291 l165 -44 18 -48
c38 -102 101 -169 205 -218 188 -88 409 -4 500 191 24 50 27 69 27 157 0 90
-3 106 -29 160 -38 76 -105 143 -181 181 -55 26 -69 29 -165 29 -98 0 -109 -2
-165 -31 -33 -18 -72 -44 -87 -59 l-27 -27 -918 246 c-505 135 -930 246 -945
246 -16 0 -40 -11 -58 -27z m2255 -524 c136 -37 193 -197 113 -314 -33 -49
-104 -85 -164 -85 -237 1 -282 332 -56 400 38 12 61 11 107 -1z"/>
<path d="M2360 1483 c-26 -23 -36 -47 -59 -137 -44 -172 -36 -185 159 -238
339 -93 550 -148 570 -148 34 0 76 27 88 57 6 15 23 70 37 122 29 103 24 148
-18 176 -12 8 -141 46 -287 85 -146 40 -296 80 -335 91 -95 25 -119 24 -155
-8z"/>
</g>
</svg>
